<svg width="396" height="150" viewBox="0 0 396 150" fill="none" xmlns="http://www.w3.org/2000/svg">
<path opacity="0.46" d="M396 2C396 0.895429 395.105 0 394 0H2C0.895416 0 0 0.895431 0 2V150H396V2Z" fill="url(#paint0_linear)"/>
<path d="M221.48 73.2351L170.935 78.5649C169.994 78.664 169.15 77.9811 169.051 77.0396L165.178 40.2771C165.132 39.8487 165.249 39.4402 165.479 39.1129C165.754 38.7214 166.19 38.4464 166.703 38.3921L217.248 33.0623C217.882 32.9955 218.472 33.2835 218.82 33.7672C218.988 34.0013 219.099 34.2808 219.132 34.5881L223.005 71.3506C223.104 72.2921 222.422 73.136 221.48 73.2351Z" fill="#9BB8F8"/>
<path d="M218.603 79.4901L175.16 84.3162C174.247 84.4124 173.429 83.7503 173.333 82.8372L171.453 64.9912C171.357 64.0781 172.018 63.2596 172.931 63.1635L216.375 58.3373C217.288 58.2412 218.106 58.9032 218.202 59.8164L220.082 77.6623C220.178 78.5755 219.516 79.3939 218.603 79.4901Z" fill="#9BB8F8"/>
<path d="M218.603 79.4901L175.16 84.3162C174.247 84.4124 173.429 83.7503 173.333 82.8372L171.453 64.9912C171.357 64.0781 172.018 63.2596 172.931 63.1635L216.375 58.3373C217.288 58.2412 218.106 58.9032 218.202 59.8164L220.082 77.6623C220.178 78.5755 219.516 79.3939 218.603 79.4901Z" fill="url(#paint1_linear)" fill-opacity="0.44"/>
<path d="M171.834 84.6252L165.339 85.3101C164.816 85.3654 164.323 85.1786 163.971 84.8399C163.69 84.5694 163.499 84.2027 163.455 83.7848L160.681 57.4507C160.625 56.9277 160.811 56.4345 161.149 56.0828C161.419 55.8013 161.787 55.61 162.205 55.5657L168.7 54.8807C169.156 54.8324 169.59 54.9684 169.927 55.2284C170.285 55.5049 170.533 55.9214 170.584 56.4066L173.359 82.7406C173.393 83.062 173.336 83.3718 173.208 83.6448C172.963 84.1713 172.455 84.5599 171.834 84.6252Z" fill="#9BB8F8"/>
<path d="M171.834 84.6252L165.339 85.3101C164.816 85.3654 164.323 85.1786 163.971 84.8399C163.69 84.5694 163.499 84.2027 163.455 83.7848L160.681 57.4507C160.625 56.9277 160.811 56.4345 161.149 56.0828C161.419 55.8013 161.787 55.61 162.205 55.5657L168.7 54.8807C169.156 54.8324 169.59 54.9684 169.927 55.2284C170.285 55.5049 170.533 55.9214 170.584 56.4066L173.359 82.7406C173.393 83.062 173.336 83.3718 173.208 83.6448C172.963 84.1713 172.455 84.5599 171.834 84.6252Z" fill="url(#paint2_linear)" fill-opacity="0.44"/>
<path d="M228.358 78.6661L221.863 79.351C221.226 79.4183 220.635 79.1279 220.287 78.6417C220.121 78.4085 220.01 78.1306 219.979 77.8257L217.204 51.4916C217.154 51.0209 217.3 50.5745 217.576 50.2333C217.852 49.8921 218.258 49.6564 218.729 49.6066L225.224 48.9217C225.797 48.8614 226.333 49.0905 226.688 49.4921C226.917 49.7501 227.069 50.0789 227.108 50.447L229.882 76.7811C229.938 77.3126 229.745 77.8127 229.397 78.1654C229.129 78.4384 228.768 78.6227 228.358 78.6661Z" fill="#9BB8F8"/>
<path d="M228.358 78.6661L221.863 79.351C221.226 79.4183 220.635 79.1279 220.287 78.6417C220.121 78.4085 220.01 78.1306 219.979 77.8257L217.204 51.4916C217.154 51.0209 217.3 50.5745 217.576 50.2333C217.852 49.8921 218.258 49.6564 218.729 49.6066L225.224 48.9217C225.797 48.8614 226.333 49.0905 226.688 49.4921C226.917 49.7501 227.069 50.0789 227.108 50.447L229.882 76.7811C229.938 77.3126 229.745 77.8127 229.397 78.1654C229.129 78.4384 228.768 78.6227 228.358 78.6661Z" fill="url(#paint3_linear)" fill-opacity="0.44"/>
<g opacity="0.9">
<circle cx="186.511" cy="46.9009" r="1.2271" fill="#4663A3"/>
<circle cx="200.746" cy="44.9361" r="1.2271" fill="#4663A3"/>
<circle cx="187.494" cy="55.2427" r="1.2271" fill="#4663A3"/>
<circle cx="201.727" cy="53.2798" r="1.2271" fill="#4663A3"/>
</g>
<ellipse opacity="0.3" cx="262.889" cy="124.575" rx="16.4383" ry="3.42465" fill="#E1EAF1"/>
<path d="M263.444 119.987L262.638 119.872C261.832 119.757 260.384 119.29 260.123 117.629L253.897 116.74L253.074 122.508C252.982 123.155 253.431 123.754 254.078 123.846L257.606 124.35L259.134 124.568L264.793 125.375C265.44 125.468 266.038 125.018 266.13 124.371L266.227 123.696C266.482 121.904 265.236 120.242 263.444 119.987Z" fill="#233152"/>
<path d="M264.963 125.513C264.9 125.513 264.838 125.508 264.775 125.499L254.061 123.97C253.345 123.868 252.847 123.203 252.949 122.487L253.772 116.719C253.776 116.685 253.795 116.655 253.821 116.635C253.848 116.615 253.883 116.606 253.916 116.611L260.142 117.499C260.198 117.507 260.241 117.55 260.25 117.606C260.51 119.261 262.02 119.651 262.657 119.742L263.464 119.857C265.322 120.123 266.619 121.852 266.354 123.712L266.258 124.387C266.209 124.733 266.028 125.04 265.747 125.25C265.517 125.423 265.244 125.513 264.963 125.513ZM254.006 116.882L253.202 122.524C253.12 123.1 253.521 123.635 254.096 123.717L264.811 125.246C265.386 125.329 265.921 124.927 266.003 124.351L266.1 123.676C266.345 121.956 265.146 120.356 263.426 120.111L262.62 119.996C261.938 119.898 260.339 119.485 260.013 117.74L254.006 116.882Z" fill="#233152"/>
<path d="M266.699 97.3393C266.676 96.9553 266.639 96.551 266.562 96.095C266.524 95.869 266.474 95.6262 266.411 95.3734C266.345 95.1144 266.267 94.8461 266.159 94.5515C266.05 94.2562 265.916 93.9415 265.736 93.6045C265.689 93.5177 265.641 93.4316 265.591 93.3462C265.539 93.2588 265.481 93.1673 265.424 93.0799L265.272 92.8505C265.106 92.6051 264.937 92.3468 264.773 92.1208C264.114 91.1839 263.461 90.3365 262.804 89.5085C262.147 88.6866 261.486 87.8896 260.822 87.1048C259.495 85.539 258.153 84.023 256.8 82.5266C255.447 81.0314 254.083 79.5578 252.708 78.097C252.021 77.3666 251.33 76.6395 250.637 75.9152L249.593 74.8296L248.53 73.736C248.455 73.66 248.367 73.5739 248.287 73.5013C246.465 71.8407 243.839 71.6221 241.805 72.7763C241.423 72.5261 241.003 72.3196 240.55 72.1669C237.683 71.2011 234.576 72.7433 233.61 75.6118L233.608 75.6159C233.088 77.1628 232.548 78.7359 232.009 80.2936C231.468 81.854 230.923 83.4123 230.371 84.964C229.819 86.5163 229.26 88.0625 228.692 89.5966C228.124 91.1274 227.546 92.6555 226.955 94.121C226.661 94.8487 226.357 95.5765 226.072 96.2026C225.791 96.812 225.439 97.4825 225.072 98.1544C224.329 99.5063 223.501 100.889 222.653 102.265C221.804 103.643 220.925 105.019 220.032 106.39C219.585 107.075 219.134 107.76 218.681 108.442L217.998 109.463L217.319 110.469L217.282 110.523C216.101 112.278 222.48 117.062 223.861 115.292L224.649 114.28L225.425 113.276C225.939 112.606 226.45 111.933 226.96 111.257C227.978 109.906 228.985 108.541 229.979 107.15C230.974 105.756 231.957 104.346 232.922 102.844C233.405 102.087 233.882 101.314 234.365 100.445C234.835 99.589 235.227 98.8055 235.616 98.0159C236.387 96.4461 237.1 94.9073 237.804 93.3637C238.505 91.8222 239.192 90.284 239.868 88.7445C240.546 87.205 241.214 85.6654 241.877 84.1246C242.024 83.7836 242.169 83.4433 242.315 83.1029L242.973 83.7089L245.106 85.6991C246.522 87.0321 247.926 88.3746 249.309 89.7271C250.689 91.0797 252.051 92.4423 253.365 93.8123C254.019 94.497 254.662 95.1837 255.281 95.8684C255.896 96.551 256.489 97.2357 257.008 97.8834C257.095 97.9883 257.17 98.0872 257.245 98.1847C257.267 98.3946 257.277 98.6636 257.274 98.9535C257.271 99.3086 257.25 99.7 257.217 100.106C257.15 100.92 257.029 101.793 256.881 102.679C256.733 103.566 256.555 104.471 256.358 105.381C255.962 107.202 255.493 109.046 254.982 110.887C254.727 111.808 254.46 112.728 254.184 113.645L253.763 115.017L253.548 115.698L253.336 116.354L253.307 116.444C252.64 118.523 260.307 121.357 261.138 119.217L261.425 118.478L261.698 117.761L262.228 116.328C262.576 115.372 262.915 114.413 263.243 113.447C263.9 111.514 264.52 109.561 265.079 107.55C265.358 106.543 265.621 105.522 265.86 104.473C266.098 103.422 266.313 102.348 266.478 101.201C266.56 100.626 266.629 100.034 266.673 99.4027C266.718 98.7685 266.741 98.1033 266.699 97.3393ZM257.174 97.8282C257.173 97.8141 257.178 97.8128 257.184 97.8296C257.195 97.8551 257.211 97.9251 257.225 98.0132C257.215 97.9883 257.207 97.9648 257.201 97.9453C257.181 97.8814 257.175 97.8491 257.174 97.8282Z" fill="#0057A3"/>
<path d="M256.704 37.5851C256.586 37.7472 256.401 37.9456 256.126 38.0976C255.939 38.2005 255.737 38.2677 255.526 38.298C255.412 38.3162 255.265 38.3128 255.188 38.4177C255.139 38.485 255.12 38.5946 255.105 38.7049C255.094 38.7957 255.087 38.8872 255.076 38.9544C255.003 39.3586 254.928 39.7635 254.855 40.1677C254.804 40.4496 254.755 40.7495 254.569 40.9654C254.138 41.4698 252.281 41.3131 251.367 41.1679C251.278 41.1531 251.191 41.1705 251.107 41.219C251.008 41.2768 250.916 41.3811 250.838 41.5337C250.062 43.0753 250.546 46.6978 251.232 47.0374L244.439 44.5334C244.919 44.1722 245.81 43.4264 246.299 42.2218C246.592 41.4981 246.657 40.8686 246.677 40.5747C246.764 39.2033 246.242 38.7345 246.239 37.8097C246.236 36.7894 246.897 36.0677 248.218 34.6257C249.48 33.249 250.711 31.9045 252.756 31.4794C253.779 31.2662 254.666 31.3557 255.251 31.464C255.51 31.8561 255.83 32.4574 255.925 33.2288C256.042 34.1549 255.747 34.6002 255.869 35.4389C255.934 35.8868 256.125 36.4948 256.687 37.1829C256.783 37.2999 256.792 37.464 256.704 37.5851Z" fill="#6994F4"/>
<path d="M253.189 34.9983C253.159 34.9983 253.129 34.9882 253.105 34.9667C253.051 34.9203 253.045 34.8396 253.092 34.7865C253.374 34.4623 253.757 34.2497 254.145 34.2033C254.535 34.1563 254.939 34.2773 255.253 34.5336C255.308 34.578 255.316 34.6587 255.271 34.7131C255.227 34.7676 255.146 34.7757 255.092 34.7313C254.832 34.5181 254.498 34.4186 254.176 34.4569C253.85 34.4959 253.525 34.6768 253.285 34.9539C253.26 34.9835 253.224 34.9983 253.189 34.9983Z" fill="#233152"/>
<path d="M254.094 35.7216C254.097 35.8709 254.099 36.0195 254.103 36.1688C254.107 36.3693 254.276 36.5616 254.486 36.5522C254.69 36.5428 254.873 36.3834 254.869 36.1688C254.866 36.0195 254.864 35.8709 254.86 35.7216C254.856 35.5212 254.687 35.3288 254.477 35.3382C254.273 35.347 254.09 35.5064 254.094 35.7216Z" fill="#000079"/>
<path d="M254.844 40.3194C254.84 40.3194 254.834 40.3194 254.83 40.3187C254.187 40.2447 253.619 39.7571 253.448 39.1323C253.434 39.0832 253.451 39.0307 253.491 38.9991C253.531 38.9675 253.585 38.9615 253.63 38.985C254.003 39.1794 254.469 39.4208 254.928 39.3859C254.996 39.3798 255.059 39.4336 255.065 39.5036C255.07 39.5735 255.018 39.6354 254.947 39.6408C254.544 39.6724 254.159 39.5291 253.82 39.3677C254.034 39.743 254.426 40.0147 254.858 40.0645C254.928 40.0726 254.979 40.1358 254.971 40.2057C254.963 40.271 254.908 40.3194 254.844 40.3194Z" fill="#233152"/>
<path d="M245.248 34.1987C245.186 32.5394 246.105 33.2376 247.319 32.1063C248.013 31.4593 248.906 31.0551 249.826 30.8203C250.404 30.6731 252.323 30.558 252.95 30.6502C254.236 30.8385 255.565 32.8959 254.6 32.9181C253.797 32.9363 252.975 32.9753 252.368 33.5792C251.706 34.2377 251.815 35.0798 251.6 35.9077C251.471 36.404 251.016 36.587 250.64 36.9085C250.1 37.3685 249.56 37.8286 249.021 38.2893C248.622 38.6289 248.214 38.9753 247.723 39.1603C247.377 39.2914 246.66 39.4185 246.381 39.0795C246.139 38.7863 246.064 38.1131 245.952 37.7526C245.592 36.5977 245.293 35.412 245.248 34.1987Z" fill="#233152"/>
<path d="M250.652 37.8059C251.26 37.7736 251.724 37.2029 251.688 36.5311C251.652 35.8594 251.131 35.3409 250.523 35.3732C249.915 35.4055 249.452 35.9762 249.487 36.648C249.523 37.3197 250.045 37.8381 250.652 37.8059Z" fill="#6994F4"/>
<path d="M250.597 37.9353C250.289 37.9353 249.996 37.8109 249.765 37.5815C249.522 37.3401 249.378 37.0112 249.36 36.6547C249.341 36.2983 249.449 35.9553 249.665 35.6903C249.883 35.4212 250.186 35.2632 250.516 35.2457C250.945 35.2235 251.349 35.4414 251.596 35.8302C251.633 35.89 251.616 35.9687 251.556 36.0064C251.496 36.044 251.417 36.0265 251.38 35.9667C251.183 35.6573 250.866 35.4845 250.529 35.5006C250.272 35.514 250.035 35.6385 249.862 35.851C249.687 36.0669 249.599 36.3474 249.614 36.6406C249.63 36.9338 249.747 37.2035 249.944 37.3999C250.138 37.593 250.387 37.6905 250.644 37.6777C250.714 37.6743 250.775 37.7282 250.779 37.7988C250.783 37.8694 250.728 37.9293 250.658 37.9333C250.638 37.9346 250.617 37.9353 250.597 37.9353Z" fill="#233152"/>
<path d="M245.365 35.3727C245.025 33.6698 244.68 31.0622 245.539 29.8126C246.398 28.5629 248.309 28.3094 249.823 28.224C250.633 28.1782 254.529 27.7437 255.172 28.224C255.943 28.7997 256.498 32.4053 255.935 32.6609C255.563 32.8297 255.036 32.9481 254.146 32.934C251.257 32.8876 248.217 35.8442 245.365 35.3727Z" fill="#233152"/>
<path d="M252.961 57.7524C252.943 59.5461 252.833 61.0285 252.76 61.806C252.217 67.5867 250.923 71.639 249.594 74.8297C246.236 78.9297 231.834 80.2714 233.632 75.5708C237.644 65.0834 239.123 58.9704 242.475 48.0418C243.021 46.2648 243.893 44.2619 245.724 43.9471C250.515 43.1266 252.225 48.0747 252.752 53.0518C252.927 54.6827 252.974 56.3164 252.961 57.7524Z" fill="#16D3A9"/>
<path d="M224.053 76.5824C223.88 76.6846 223.783 76.8178 223.851 77.0922C224.103 78.1105 226.083 78.1071 227.024 78.0412C227.813 77.9861 228.821 77.8946 229.997 77.711C231.475 77.5839 234.104 77.4554 233.727 74.983C233.61 74.215 233.052 73.3816 232.21 73.1281C231.892 73.0326 231.584 72.9055 231.298 72.7373C231.14 72.6438 230.963 72.5638 230.78 72.508C230.065 72.2914 229.426 72.4723 229.078 72.627C227.874 73.161 226.702 73.5875 225.492 73.5088C224.858 73.4677 224.398 73.6964 224.224 74.0482C224.061 74.3791 224.293 74.7994 224.377 74.938C224.312 74.9286 223.963 74.8842 223.67 75.1229C223.627 75.1572 223.33 75.4148 223.358 75.8204C223.379 76.1345 223.688 76.5037 224.053 76.5824Z" fill="#6994F4"/>
<path d="M252.961 57.7514H246.183V53.0508H252.753C252.928 54.6818 252.974 56.3154 252.961 57.7514Z" fill="white"/>
<path d="M250.561 51.4143C250.541 51.4708 250.513 51.5381 250.49 51.5932C250.334 51.9537 250.173 52.3371 250.016 52.6438C249.937 52.8025 249.857 52.9713 249.778 53.1233L249.54 53.5746C249.222 54.1732 248.9 54.7341 248.575 55.2877C247.926 56.3907 247.264 57.448 246.595 58.4952C245.256 60.5815 243.885 62.6127 242.499 64.6277C241.113 66.6414 239.71 68.6355 238.295 70.6169C237.518 71.7058 236.74 72.7873 235.956 73.8688C235.603 74.3544 235.249 74.84 234.894 75.3276C234.599 75.7305 234.304 76.1341 234.006 76.5383C233.07 77.8115 229.048 73.6899 229.845 72.4322C229.845 72.4322 230.149 71.95 230.594 71.2418C230.875 70.7959 231.211 70.2598 231.564 69.6962C232.096 68.8461 232.664 67.9347 233.129 67.1801C234.393 65.1321 235.642 63.0781 236.865 61.016C238.088 58.9552 239.29 56.887 240.428 54.8175C240.996 53.7845 241.549 52.7494 242.06 51.7291C242.314 51.2206 242.561 50.7128 242.778 50.2272L242.94 49.864C242.993 49.7437 243.034 49.634 243.081 49.519C243.184 49.2789 243.238 49.096 243.312 48.8976L243.376 48.7274C244.117 46.742 246.327 45.7344 248.311 46.4763C250.296 47.2188 251.304 49.4289 250.561 51.4143Z" fill="#0FC39B"/>
<path d="M235.955 73.8679C235.602 74.3535 235.249 74.8391 234.894 75.3268L230.594 71.2409C230.875 70.795 231.211 70.2589 231.564 69.6953L235.955 73.8679Z" fill="white"/>
<ellipse opacity="0.3" cx="136.52" cy="123.891" rx="19.5205" ry="3.42465" fill="#E1EAF1"/>
<path d="M136.416 119.729L135.816 119.281C135.216 118.832 134.253 117.816 134.775 116.36L130.143 112.895L126.934 117.186C126.575 117.667 126.673 118.349 127.154 118.709L129.78 120.673L130.916 121.523L135.127 124.673C135.608 125.033 136.289 124.935 136.649 124.453L137.025 123.951C138.023 122.617 137.75 120.727 136.416 119.729Z" fill="#233152"/>
<path d="M135.776 125.018C135.522 125.018 135.268 124.939 135.05 124.776L127.077 118.812C126.817 118.618 126.648 118.334 126.602 118.012C126.555 117.691 126.637 117.371 126.831 117.111L130.039 112.819C130.059 112.792 130.089 112.774 130.123 112.769C130.157 112.764 130.191 112.773 130.218 112.793L134.851 116.259C134.896 116.293 134.913 116.352 134.894 116.404C134.377 117.848 135.419 118.826 135.891 119.179L136.491 119.628C137.163 120.131 137.6 120.865 137.719 121.697C137.839 122.528 137.629 123.356 137.126 124.029L136.75 124.531C136.512 124.85 136.146 125.018 135.776 125.018ZM130.167 113.074L127.036 117.263C126.883 117.468 126.818 117.721 126.854 117.975C126.891 118.23 127.024 118.454 127.23 118.607L135.202 124.571C135.627 124.889 136.229 124.801 136.546 124.378L136.921 123.875C137.383 123.257 137.577 122.496 137.467 121.732C137.356 120.968 136.956 120.294 136.338 119.832L135.738 119.383C135.23 119.003 134.121 117.961 134.623 116.407L130.167 113.074Z" fill="#233152"/>
<path d="M175.496 116.346L174.81 116.648C174.124 116.95 172.767 117.289 171.756 116.119L166.462 118.45L168.62 123.355C168.862 123.905 169.504 124.155 170.053 123.913L173.054 122.592L174.353 122.02L179.166 119.901C179.716 119.659 179.965 119.016 179.723 118.467L179.47 117.892C178.799 116.368 177.02 115.675 175.496 116.346Z" fill="#233152"/>
<path d="M169.616 124.13C169.148 124.13 168.701 123.859 168.502 123.404L166.344 118.499C166.33 118.468 166.33 118.433 166.342 118.401C166.354 118.37 166.378 118.344 166.41 118.331L171.704 115.999C171.756 115.977 171.815 115.99 171.852 116.033C172.853 117.194 174.218 116.767 174.757 116.529L175.443 116.227C177.03 115.529 178.888 116.252 179.586 117.839L179.839 118.413C179.969 118.711 179.976 119.041 179.859 119.343C179.741 119.646 179.513 119.885 179.215 120.016L170.103 124.028C169.944 124.097 169.778 124.13 169.616 124.13ZM166.629 118.513L168.735 123.301C168.948 123.785 169.516 124.006 170 123.793L179.113 119.781C179.347 119.678 179.527 119.489 179.621 119.251C179.714 119.012 179.708 118.751 179.605 118.516L179.352 117.942C178.711 116.484 177.004 115.82 175.546 116.462L174.86 116.764C174.279 117.019 172.828 117.473 171.721 116.271L166.629 118.513Z" fill="#233152"/>
<path d="M172.157 115.527C171.125 112.48 170.149 109.441 169.17 106.382L167.695 101.79L166.95 99.4838L166.57 98.3283L166.378 97.7499L166.282 97.4607L166.176 97.1526C165.615 95.4874 165.01 93.9532 164.401 92.4204C163.797 90.8876 163.168 89.3824 162.548 87.8792L158.769 78.8822C158.633 78.5634 158.454 78.2244 158.254 77.9265C156.533 75.3687 153.065 74.6914 150.508 76.4132C150.356 76.5154 150.211 76.6251 150.072 76.7394C148.939 76.007 147.536 75.6868 146.103 75.9471C143.111 76.4912 141.126 79.3591 141.669 82.352C141.673 82.3742 141.679 82.426 141.684 82.4657L141.699 82.5968L141.729 82.8652L141.786 83.412L141.891 84.5184C141.956 85.2582 142.015 86.0007 142.065 86.7419C142.166 88.2236 142.235 89.7012 142.259 91.1513C142.282 92.598 142.26 94.0306 142.157 95.3461C142.106 96.0005 142.032 96.6274 141.938 97.1486C141.893 97.4076 141.841 97.6389 141.8 97.8077L141.772 97.9207C141.765 97.9443 141.757 97.9806 141.755 97.9967C141.753 98.0048 141.752 98.0129 141.751 98.0216L141.751 98.0283L141.743 98.0458L141.725 98.0821L141.658 98.2281C141.64 98.2738 141.605 98.3337 141.575 98.3915L141.482 98.565C141.417 98.6834 141.333 98.8152 141.261 98.941C141.1 99.2013 140.926 99.4703 140.734 99.7468C140.354 100.298 139.932 100.865 139.489 101.434C138.599 102.571 137.634 103.712 136.639 104.84C135.642 105.969 134.614 107.09 133.568 108.199C133.045 108.753 132.517 109.305 131.986 109.853L131.187 110.671L130.396 111.469L130.333 111.532C129.053 112.83 133.667 118.066 135.186 116.797L136.119 116.018L137.031 115.243C137.637 114.725 138.239 114.203 138.838 113.676C140.036 112.622 141.224 111.55 142.4 110.444C143.576 109.337 144.74 108.199 145.893 106.982C146.47 106.371 147.043 105.737 147.615 105.056C147.902 104.717 148.188 104.357 148.476 103.981C148.621 103.783 148.763 103.597 148.909 103.387L149.127 103.067C149.2 102.959 149.271 102.856 149.346 102.73L149.568 102.368L149.623 102.277L149.65 102.231L149.682 102.172L149.811 101.935C149.896 101.777 149.963 101.633 150.037 101.481C150.102 101.339 150.17 101.191 150.228 101.052C150.465 100.492 150.642 99.9774 150.794 99.4831C151.096 98.4964 151.301 97.5871 151.473 96.6987C151.812 94.9278 152.015 93.2457 152.175 91.579C152.244 90.8399 152.301 90.1061 152.351 89.375C152.919 90.2944 153.48 91.2172 154.027 92.1447C154.834 93.4905 155.601 94.8504 156.35 96.2023C157.095 97.5535 157.808 98.9235 158.422 100.22L158.54 100.466L158.658 100.735L158.893 101.272L159.361 102.351C159.672 103.071 159.981 103.797 160.286 104.524L161.184 106.717L161.63 107.817L162.066 108.921C163.226 111.866 164.348 114.845 165.371 117.831L165.371 117.828C166.006 119.699 172.791 117.401 172.157 115.527Z" fill="#EDD0A5"/>
<path d="M145.695 42.7044C145.664 42.886 145.593 43.1247 145.428 43.3628C145.316 43.5236 145.177 43.6621 145.016 43.7731C144.929 43.8343 144.806 43.8921 144.786 44.0098C144.773 44.0852 144.801 44.184 144.834 44.2809C144.862 44.3603 144.894 44.4383 144.912 44.4981C145.017 44.8613 145.12 45.2252 145.225 45.5884C145.298 45.8413 145.38 46.109 145.315 46.3632C145.165 46.955 143.571 47.5839 142.758 47.8368C142.679 47.861 142.613 47.9108 142.565 47.9854C142.507 48.0735 142.473 48.1973 142.472 48.3547C142.46 49.9426 144.392 52.5697 145.096 52.5697L138.35 53.4111C138.598 52.9174 139.098 51.9677 139.01 50.7753C138.956 50.0596 138.753 49.5135 138.65 49.2626C138.161 48.0971 137.54 47.9229 137.161 47.1622C136.742 46.3222 136.992 45.4579 137.493 43.7301C137.973 42.0796 138.439 40.4688 139.95 39.2837C140.707 38.6905 141.475 38.4019 142.002 38.252C142.375 38.4692 142.883 38.8351 143.277 39.4316C143.751 40.1473 143.69 40.6349 144.132 41.2765C144.369 41.6189 144.775 42.0426 145.518 42.3795C145.644 42.4367 145.719 42.5685 145.695 42.7044Z" fill="#C7D8FF"/>
<path d="M141.69 42.0265C141.68 42.0265 141.669 42.0252 141.658 42.0225C141.589 42.0043 141.549 41.935 141.567 41.8664C141.669 41.4764 141.894 41.1508 142.201 40.9497C142.506 40.75 142.892 40.6841 143.257 40.7681C143.326 40.7843 143.369 40.8529 143.354 40.9215C143.337 40.9901 143.27 41.0331 143.2 41.0177C142.902 40.9491 142.588 41.0022 142.341 41.1643C142.091 41.3277 141.899 41.6075 141.814 41.9317C141.799 41.9882 141.747 42.0265 141.69 42.0265Z" fill="#233152"/>
<path d="M142.769 42.2719C142.832 42.3937 142.896 42.5154 142.959 42.6371C143.052 42.8154 143.315 42.8833 143.483 42.775C143.665 42.658 143.72 42.4407 143.621 42.2504C143.558 42.1287 143.495 42.0069 143.431 41.8852C143.339 41.707 143.075 41.639 142.907 41.7473C142.726 41.8643 142.67 42.0816 142.769 42.2719Z" fill="#000079"/>
<path d="M145.316 46.3617C145.167 46.9535 143.572 47.5824 142.759 47.8353C142.68 47.8595 142.615 47.9092 142.566 47.9839C142.403 47.8521 142.262 47.6947 142.133 47.5299C141.49 46.7121 141.092 45.7341 140.7 44.7683C140.542 44.3769 140.384 43.9861 140.224 43.5933C140.129 43.3593 140.034 43.1192 140.032 42.867C140.032 42.6161 140.313 41.3382 140.4 41.77C140.564 42.5791 140.977 43.1757 141.176 43.5281C141.461 44.0292 141.789 44.5672 142.331 44.7589C142.594 44.8537 142.883 44.8524 143.16 44.8215C143.523 44.7804 143.88 44.6883 144.216 44.5491C144.424 44.4623 144.627 44.3587 144.836 44.278C144.864 44.3574 144.896 44.4354 144.914 44.4953C145.019 44.8585 145.122 45.2223 145.227 45.5855C145.299 45.8404 145.381 46.1074 145.316 46.3617Z" fill="#233152"/>
<path d="M134.87 44.5893C134.142 43.2469 135.184 43.4473 135.724 42.0188C136.032 41.2023 136.603 40.5041 137.266 39.9351C137.682 39.5773 139.218 38.6996 139.772 38.5194C140.909 38.1494 142.843 39.3029 142.057 39.7152C141.403 40.0582 140.741 40.4254 140.487 41.1713C140.21 41.9845 140.643 42.6335 140.804 43.4043C140.9 43.8663 140.6 44.2026 140.42 44.6216C140.163 45.2216 139.906 45.8208 139.649 46.4207C139.459 46.8633 139.263 47.3159 138.935 47.6684C138.703 47.9179 138.164 48.3154 137.795 48.1499C137.476 48.0067 137.14 47.4827 136.9 47.2312C136.133 46.4261 135.402 45.5713 134.87 44.5893Z" fill="#233152"/>
<path d="M140.799 45.3579C141.287 45.0833 141.436 44.4235 141.133 43.8842C140.829 43.345 140.188 43.1305 139.7 43.4051C139.213 43.6797 139.063 44.3395 139.367 44.8788C139.67 45.418 140.312 45.6325 140.799 45.3579Z" fill="#C7D8FF"/>
<path d="M140.339 45.6049C140.218 45.6049 140.095 45.5847 139.973 45.5437C139.672 45.4428 139.417 45.229 139.255 44.9404C139.093 44.6519 139.042 44.323 139.112 44.0136C139.183 43.6995 139.369 43.4433 139.637 43.2926C139.905 43.142 140.22 43.1151 140.526 43.2173C140.827 43.3182 141.081 43.5321 141.244 43.8206C141.582 44.4205 141.41 45.1597 140.862 45.4684C140.7 45.5585 140.522 45.6049 140.339 45.6049ZM140.159 43.4123C140.019 43.4123 139.884 43.4473 139.762 43.5159C139.558 43.6309 139.415 43.828 139.36 44.0701C139.305 44.3176 139.346 44.5819 139.477 44.8153C139.608 45.0487 139.812 45.2209 140.053 45.3016C140.289 45.3803 140.531 45.3608 140.735 45.2458C141.161 45.0063 141.289 44.4232 141.02 43.9464C140.889 43.713 140.685 43.5408 140.444 43.4601C140.349 43.4278 140.253 43.4123 140.159 43.4123Z" fill="#233152"/>
<path d="M135.001 44.7269C134.031 43.7241 133.557 42.2619 133.756 40.8811C133.954 39.4996 134.82 38.2305 136.033 37.5418C136.682 37.1739 137.412 36.9681 138.063 36.6035C138.822 36.1778 139.459 35.5355 139.878 34.7721C139.973 34.5979 140.06 34.4136 140.208 34.2805C140.355 34.1473 140.581 34.0767 140.754 34.1722C141.105 34.3665 140.907 34.9329 141.111 35.2786C141.393 34.8602 141.676 34.4419 141.958 34.0235C142.188 33.6839 142.444 33.3234 142.83 33.1895C143.005 33.129 143.226 33.1324 143.345 33.275C143.409 33.353 143.431 33.4579 143.446 33.5581C143.575 34.4022 143.429 35.286 143.036 36.0433C143.283 35.8731 143.602 35.6982 143.863 35.8455C144.65 36.2901 143.84 37.9931 143.497 38.4464C143.002 39.0994 142.432 39.5608 141.692 39.9119C139.29 41.0539 137.544 43.9514 135.001 44.7269Z" fill="#233152"/>
<path d="M144.777 45.8181C144.35 45.8181 143.922 45.6392 143.637 45.317C143.603 45.2787 143.595 45.2249 143.616 45.1785C143.637 45.1327 143.683 45.1038 143.734 45.1045C144.12 45.1126 144.599 45.1213 144.962 44.9068C145.022 44.8704 145.101 44.8906 145.137 44.9511C145.173 45.0117 145.153 45.0904 145.092 45.126C144.78 45.311 144.417 45.3547 144.08 45.3621C144.404 45.5679 144.821 45.6244 145.184 45.4932C145.25 45.4697 145.324 45.504 145.347 45.5706C145.371 45.6372 145.336 45.7105 145.27 45.734C145.111 45.7905 144.944 45.8181 144.777 45.8181Z" fill="#C7D8FF"/>
<path d="M138.955 82.3016C139.599 78.5473 140.62 66.519 137.843 57.3263C137.348 55.6885 137.707 53.8941 138.851 52.6243C139.904 51.4547 146.031 50.69 150.011 56.9671C150.208 57.2752 150.398 57.6 150.582 57.9437C151.125 58.9546 151.602 59.8935 152.026 60.7793C155.228 67.4666 155.401 71.1046 157.81 79.349C157.985 82.6096 138.411 85.4768 138.955 82.3016Z" fill="#16D3A9"/>
<path d="M162.751 78.8216C162.977 78.7705 163.328 78.6837 163.749 78.5492C165.02 78.1423 165.441 77.9715 166.16 77.9069C166.446 77.8814 166.846 78.0421 166.945 78.4087C167.024 78.6999 166.713 79.0806 166.538 79.205C165.924 79.6408 165.381 79.8486 164.992 79.8863C165.514 80.1654 165.958 80.3457 166.27 80.4593C166.979 80.7176 167.334 80.8474 167.681 80.9039C168.121 80.9759 168.913 81.138 168.91 81.7318C168.908 82.1865 168.517 82.2955 168.186 82.2988C168.345 82.3076 169.477 82.4562 169.535 83.194C169.556 83.4657 169.497 83.6897 169.236 83.8417C169.013 83.9715 168.679 83.952 168.6 83.9412C168.637 83.9554 168.861 84.1107 168.943 84.3367C169.045 84.6152 168.86 84.8613 168.838 84.8889C168.654 85.1256 168.323 85.1552 168.061 85.1593C167.072 85.1741 166.175 84.8364 165.673 84.6387C165.09 84.4094 164.543 84.2197 163.842 83.8504C163.303 83.5666 161.412 82.7434 161.071 82.508C160.948 82.3701 161.583 81.9679 161.768 80.6376C161.91 79.6079 162.563 78.9884 162.751 78.8216Z" fill="#C7D8FF"/>
<path d="M152.025 60.7809L145.997 63.2291L144.383 59.2535L150.009 56.9688C150.206 57.2768 150.397 57.6016 150.581 57.9453C151.124 58.9569 151.601 59.8951 152.025 60.7809Z" fill="white"/>
<path d="M160.714 82.6922L160.341 82.448L159.863 82.136L159.026 81.5798C158.968 81.5401 158.907 81.5004 158.849 81.4607C158.543 81.2563 158.238 81.0504 157.934 80.8433C157.743 80.7142 157.553 80.5837 157.362 80.4532C157.06 80.246 156.759 80.0389 156.459 79.8291C155.657 79.2715 154.859 78.7052 154.064 78.1274C152.97 77.3311 151.884 76.5139 150.801 75.6409C150.259 75.2024 149.717 74.7484 149.173 74.2615C148.901 74.0187 148.626 73.7631 148.35 73.4934C148.072 73.2183 147.793 72.9345 147.499 72.5949L147.279 72.3366L147.112 72.1335L146.781 71.7306C146.558 71.4636 146.343 71.1885 146.125 70.9148L145.801 70.5032L145.481 70.0828C145.267 69.8043 145.055 69.5232 144.849 69.2354C144.013 68.094 143.216 66.9049 142.475 65.6741C141.733 64.4446 141.048 63.1721 140.422 61.8848C139.798 60.5962 139.232 59.2947 138.71 58L138.705 57.9859C137.946 56.1054 138.824 53.9538 140.665 53.179C142.506 52.4042 144.615 53.3008 145.374 55.1813C145.405 55.2539 145.435 55.3387 145.459 55.4126C146.253 57.8285 147.151 60.1065 148.275 62.2789C148.836 63.3658 149.451 64.4305 150.117 65.4797C150.28 65.7434 150.452 66.0023 150.625 66.2633L150.883 66.6533L151.15 67.0407C151.328 67.3004 151.504 67.5586 151.691 67.8142L151.967 68.2003L152.104 68.3906L152.2 68.5157C152.329 68.6845 152.504 68.8849 152.686 69.0847C152.872 69.2865 153.071 69.4936 153.282 69.7008C153.702 70.1178 154.152 70.5368 154.617 70.9538C155.549 71.7858 156.53 72.6076 157.531 73.4174C158.226 73.9783 158.93 74.5346 159.641 75.0854C159.954 75.3282 160.268 75.5696 160.584 75.8104C160.744 75.9328 160.903 76.0546 161.065 76.175C161.357 76.3989 161.652 76.6195 161.947 76.8395C162.011 76.8865 162.075 76.9356 162.139 76.9827L162.919 77.5618L163.387 77.9035L163.695 78.1288L163.728 78.153C164.936 79.0341 161.91 83.4724 160.714 82.6922Z" fill="#0FC39B"/>
<path d="M163.388 77.9039L160.342 82.4484L159.864 82.1363L159.027 81.5801C158.969 81.5404 158.908 81.5008 158.85 81.4611L161.948 76.8398C162.012 76.8869 162.076 76.936 162.14 76.9831L162.92 77.5622L163.388 77.9039Z" fill="white"/>
<path d="M224.651 119.28L223.999 118.793C223.347 118.305 222.3 117.2 222.867 115.617L217.831 111.85L214.343 116.516C213.952 117.039 214.059 117.78 214.582 118.172L217.436 120.307L218.671 121.231L223.25 124.656C223.773 125.048 224.514 124.941 224.905 124.417L225.313 123.871C226.397 122.42 226.101 120.365 224.651 119.28Z" fill="#233152"/>
<path d="M223.955 125.019C223.682 125.019 223.407 124.935 223.171 124.759L214.503 118.275C213.925 117.842 213.806 117.019 214.239 116.44L217.727 111.774C217.747 111.747 217.777 111.729 217.811 111.724C217.845 111.719 217.879 111.728 217.906 111.748L222.942 115.516C222.987 115.549 223.005 115.609 222.986 115.661C222.42 117.238 223.558 118.305 224.074 118.69L224.726 119.178C225.454 119.723 225.927 120.519 226.057 121.42C226.187 122.321 225.958 123.219 225.413 123.947L225.005 124.493C224.749 124.838 224.354 125.019 223.955 125.019ZM217.855 112.029L214.443 116.593C214.095 117.059 214.191 117.721 214.657 118.07L223.325 124.554C223.79 124.902 224.453 124.807 224.801 124.341L225.209 123.795C225.713 123.12 225.924 122.29 225.804 121.457C225.684 120.623 225.247 119.887 224.572 119.383L223.92 118.896C223.369 118.483 222.165 117.353 222.714 115.664L217.855 112.029Z" fill="#233152"/>
<defs>
<linearGradient id="paint0_linear" x1="384.859" y1="-120.506" x2="365.894" y2="111.495" gradientUnits="userSpaceOnUse">
<stop stop-color="#6994F4"/>
<stop offset="1" stop-color="white" stop-opacity="0"/>
</linearGradient>
<linearGradient id="paint1_linear" x1="195.767" y1="55.0597" x2="199.534" y2="84.1692" gradientUnits="userSpaceOnUse">
<stop stop-color="#4663A3"/>
<stop offset="0.615384" stop-color="#9BB8F8"/>
</linearGradient>
<linearGradient id="paint2_linear" x1="167" y1="49.5791" x2="160.191" y2="67.1449" gradientUnits="userSpaceOnUse">
<stop stop-color="#4663A3"/>
<stop offset="1" stop-color="#9BB8F8"/>
</linearGradient>
<linearGradient id="paint3_linear" x1="224.526" y1="23.0235" x2="207.451" y2="64.5361" gradientUnits="userSpaceOnUse">
<stop stop-color="#4663A3"/>
<stop offset="1" stop-color="#9BB8F8"/>
</linearGradient>
</defs>
</svg>
