<svg width="396" height="150" viewBox="0 0 396 150" fill="none" xmlns="http://www.w3.org/2000/svg">
<path opacity="0.46" d="M396 2C396 0.895429 395.105 0 394 0H2C0.895416 0 0 0.895431 0 2V150H396V2Z" fill="url(#paint0_linear)"/>
<ellipse opacity="0.3" cx="199.761" cy="107.53" rx="11.511" ry="2.09291" fill="#E1EAF1"/>
<ellipse opacity="0.3" cx="293.244" cy="107.533" rx="11.511" ry="2.79054" fill="#E1EAF1"/>
<ellipse opacity="0.3" cx="111.77" cy="124.849" rx="26.77" ry="3.14941" fill="#E1EAF1"/>
<path d="M97.3473 120.399L96.7298 119.944C96.1124 119.489 95.1204 118.458 95.6583 116.982L90.8883 113.467L87.5851 117.82C87.2148 118.307 87.3159 118.999 87.8115 119.364L90.5145 121.356L91.6844 122.218L96.0203 125.414C96.5152 125.779 97.2171 125.679 97.5875 125.191L97.9744 124.681C99.0009 123.328 98.7206 121.411 97.3473 120.399Z" fill="#233152"/>
<path d="M96.6031 125.633C96.6619 125.633 96.7207 125.629 96.7803 125.621C97.1035 125.575 97.3889 125.407 97.5844 125.149L97.9624 124.65C98.4683 123.982 98.6806 123.159 98.5596 122.334C98.4392 121.508 98.0003 120.778 97.3233 120.279L96.7201 119.834C96.2453 119.483 95.1964 118.512 95.7171 117.078C95.7361 117.025 95.7185 116.967 95.6732 116.934L91.0129 113.492C90.9859 113.472 90.9507 113.463 90.9176 113.468C90.8838 113.473 90.8533 113.491 90.833 113.517L87.6058 117.779C87.4104 118.038 87.3285 118.356 87.3745 118.675C87.4212 118.994 87.5909 119.276 87.8527 119.469L95.8727 125.392C96.0871 125.551 96.3414 125.633 96.6031 125.633ZM95.4446 117.081C94.9394 118.625 96.0553 119.66 96.5666 120.037L97.1698 120.482C97.7913 120.941 98.1944 121.612 98.3053 122.37C98.4162 123.128 98.2214 123.884 97.7568 124.498L97.3788 124.997C97.2246 125.201 96.9987 125.334 96.7437 125.37C96.4888 125.406 96.2345 125.342 96.0276 125.189L88.0075 119.266C87.5815 118.952 87.4936 118.352 87.8128 117.932L90.9629 113.771L95.4446 117.081ZM97.2469 120.381H97.2455H97.2469Z" fill="#233152"/>
<path d="M139.802 119.236L139.058 119.383C138.313 119.53 136.897 119.559 136.164 118.146L130.414 119.278L131.439 124.721C131.554 125.331 132.131 125.731 132.728 125.613L135.986 124.972L137.397 124.694L142.623 123.666C143.22 123.548 143.612 122.958 143.497 122.348L143.377 121.711C143.058 120.018 141.458 118.911 139.802 119.236Z" fill="#233152"/>
<path d="M132.605 125.634C132.681 125.634 132.757 125.626 132.834 125.611L142.538 123.731C143.191 123.604 143.62 122.966 143.495 122.308L143.377 121.693C143.052 119.992 141.413 118.875 139.724 119.202L138.994 119.344C138.419 119.455 137.005 119.568 136.292 118.214C136.265 118.165 136.211 118.139 136.155 118.149L130.517 119.242C130.448 119.255 130.404 119.322 130.416 119.392L131.421 124.649C131.532 125.228 132.039 125.634 132.605 125.634ZM140.319 119.4C140.886 119.4 141.44 119.57 141.92 119.897C142.554 120.329 142.983 120.984 143.127 121.741L143.245 122.357C143.344 122.876 143.005 123.38 142.489 123.48L132.785 125.36C132.536 125.409 132.282 125.356 132.071 125.212C131.86 125.069 131.718 124.851 131.67 124.6L130.689 119.468L136.113 118.416C136.917 119.832 138.423 119.713 139.041 119.593L139.771 119.451C139.954 119.417 140.137 119.4 140.319 119.4Z" fill="#233152"/>
<path d="M89.3401 112.706L89.347 112.694C90.8427 110.087 92.3344 107.451 93.7899 104.824C94.5191 103.51 95.2387 102.194 95.9393 100.883C96.2912 100.227 96.633 99.5738 96.9693 98.9255L97.4581 97.961L97.6883 97.4898L97.8033 97.2541L97.8319 97.1955L97.8496 97.1516L97.885 97.0651L97.9579 96.8914L98.0355 96.691C98.0872 96.5632 98.141 96.4155 98.1941 96.2697C98.2479 96.1286 98.301 95.9728 98.3541 95.8191C98.4079 95.668 98.461 95.5095 98.5134 95.3491C98.7238 94.7108 98.9301 94.0439 99.1268 93.3603C99.5217 91.9951 99.8921 90.586 100.245 89.1649C100.599 87.7431 100.935 86.3067 101.259 84.865L101.734 82.6997L101.964 81.6175L102.182 80.5538L102.19 80.5125C102.229 80.3241 102.278 80.1364 102.339 79.9487C103.263 77.0899 106.382 75.5044 109.307 76.4077C109.617 76.5035 109.912 76.6247 110.191 76.7658C110.612 76.3431 111.109 75.9783 111.678 75.6961C114.459 74.3143 117.859 75.3986 119.272 78.1176L120.495 80.4719L121.722 82.8096L124.188 87.4842L125.42 89.8338C125.83 90.6232 126.237 91.4093 126.643 92.2127C126.848 92.6108 127.052 93.0095 127.255 93.4202C127.458 93.8289 127.661 94.2282 127.863 94.6576C128.255 95.457 128.703 96.478 129.031 97.2621C129.732 98.9202 130.37 100.548 131.027 102.174L132.968 107.039C134.26 110.278 135.554 113.503 136.903 116.719C137.669 118.529 130.961 121.23 130.196 119.42L130.194 119.415C128.848 116.233 127.419 113.069 125.96 109.931C125.234 108.361 124.488 106.8 123.739 105.248C123.365 104.473 122.985 103.697 122.601 102.933L122.025 101.79C121.832 101.413 121.64 101.028 121.447 100.663L121.157 100.11L121.085 99.9732L121.014 99.8534L120.872 99.6144L120.731 99.3754C120.684 99.2962 120.639 99.2177 120.583 99.1298L120.263 98.6173C120.056 98.2792 119.824 97.9257 119.599 97.5769C119.376 97.2288 119.142 96.8761 118.908 96.5233C117.962 95.1195 116.989 93.7037 115.985 92.3019L114.471 90.2006L112.928 88.1112L111.802 86.6236L111.458 87.6406C110.955 89.1016 110.438 90.5607 109.897 92.023C109.356 93.4854 108.795 94.9491 108.182 96.4314C107.876 97.1723 107.552 97.9204 107.201 98.6852C107.114 98.8756 107.026 99.0673 106.93 99.2636C106.837 99.458 106.745 99.6517 106.642 99.854C106.542 100.054 106.442 100.252 106.328 100.464L106.161 100.775L105.974 101.105L105.879 101.27L105.831 101.353L105.791 101.418L105.63 101.679L105.307 102.2L104.664 103.205C104.234 103.864 103.805 104.516 103.374 105.157C102.511 106.443 101.644 107.71 100.771 108.97C99.0247 111.492 97.2689 113.98 95.4852 116.475C94.4251 117.946 88.3591 114.416 89.3401 112.706Z" fill="#0057A3"/>
<path d="M100.584 59.7824L100.498 60.0373L100.479 60.0941C100.473 60.1123 100.471 60.1238 100.466 60.1394L100.444 60.2259C100.44 60.2685 100.429 60.3192 100.429 60.355C100.428 60.3916 100.433 60.4186 100.439 60.4429C100.454 60.4909 100.491 60.5011 100.521 60.5241L100.615 60.5856L100.983 60.8222C101.228 60.977 101.472 61.1264 101.718 61.2731C102.208 61.5665 102.704 61.8484 103.208 62.1189C104.218 62.6577 105.26 63.1519 106.361 63.5872C107.465 64.0138 108.623 64.3904 109.908 64.6168C110.553 64.727 111.228 64.8021 111.956 64.798C112.679 64.7967 113.46 64.7095 114.272 64.4627C115.048 64.2207 115.708 63.8867 116.305 63.5129C116.902 63.1397 117.425 62.7273 117.907 62.2994C118.859 61.4333 119.639 60.5078 120.342 59.5627C121.036 58.6108 121.648 57.636 122.203 56.6402C122.478 56.1406 122.74 55.6369 122.99 55.1272C123.114 54.8709 123.233 54.6134 123.351 54.3524L123.526 53.9576L123.703 53.5337C124.125 52.5257 123.673 51.3562 122.692 50.9221C121.829 50.5402 120.844 50.8552 120.333 51.6246L120.261 51.7334L119.867 52.3263C119.728 52.5318 119.586 52.7367 119.442 52.9402C119.156 53.3492 118.862 53.7514 118.559 54.1435C117.959 54.9304 117.332 55.6829 116.679 56.365C116.034 57.0512 115.356 57.6705 114.682 58.145C114.348 58.3837 114.016 58.5892 113.703 58.7379C113.394 58.89 113.091 58.9874 112.861 59.0239C112.473 59.0881 111.782 59.0449 111.029 58.8434C110.271 58.6467 109.446 58.3323 108.625 57.9443C107.8 57.5609 106.971 57.1066 106.156 56.6124C105.748 56.367 105.342 56.1101 104.945 55.8445C104.746 55.7119 104.548 55.5774 104.356 55.4415L104.07 55.238L104.001 55.188C103.978 55.1731 103.961 55.1468 103.922 55.1569C103.902 55.1623 103.88 55.1704 103.852 55.1887C103.824 55.2063 103.787 55.2374 103.756 55.261L103.694 55.3192C103.683 55.33 103.674 55.3367 103.662 55.3503L103.622 55.3929C103.568 55.4537 103.52 55.4943 103.456 55.5903C102.331 54.7749 100.776 55.0521 99.9836 56.2095C99.1908 57.3669 99.459 58.9671 100.584 59.7824Z" fill="#0FC39B"/>
<path d="M98.8072 58.4947C101.51 67.5194 103.069 73.2809 100.366 81.9628C105.665 83.5178 118.428 82.0104 120.118 78.9045C118.609 71.5378 115.342 64.7132 112.825 60.3296C112.339 59.4838 111.881 58.7285 111.469 58.0781C111.187 57.6324 110.882 57.2112 110.559 56.8143C107.265 52.7761 102.086 51.3829 99.7888 53.8788C98.6554 55.1075 98.3256 56.887 98.8072 58.4947Z" fill="#16D3A9"/>
<path d="M149.14 28.6748L157.377 60.2274C157.475 60.6001 157.252 60.9813 156.879 61.0787L121.103 70.4266C120.73 70.524 120.349 70.3007 120.252 69.9279L112.014 38.3754C111.917 38.0026 112.14 37.6214 112.513 37.524L148.288 28.1762C148.661 28.0788 149.042 28.302 149.14 28.6748Z" fill="#E1EAF1"/>
<path d="M149.14 28.6748L157.377 60.2274C157.475 60.6001 157.252 60.9813 156.879 61.0787L121.103 70.4266C120.73 70.524 120.349 70.3007 120.252 69.9279L112.014 38.3754C111.917 38.0026 112.14 37.6214 112.513 37.524L148.288 28.1762C148.661 28.0788 149.042 28.302 149.14 28.6748Z" fill="url(#paint1_linear)"/>
<path d="M132.802 32.2225L141.393 65.125L136.594 66.3789L128.003 33.4763L132.802 32.2225Z" fill="#F5F7F9"/>
<path d="M147.57 32.1323L148.437 35.4511C148.547 35.8718 148.295 36.302 147.874 36.4119L139.356 38.6377C138.935 38.7476 138.505 38.4956 138.395 38.0749L137.529 34.7561C137.419 34.3354 137.671 33.9052 138.092 33.7953L146.61 31.5695C147.03 31.4596 147.461 31.7115 147.57 32.1323Z" fill="white"/>
<path d="M106.268 43.9885C106.832 45.9133 106.694 46.9181 106.634 47.268C106.535 47.8415 106.378 48.6874 105.659 49.3177C105.252 49.6749 104.81 49.8344 104.508 49.9112H104.507C104.504 49.9119 104.501 49.9125 104.497 49.9132C104.473 49.9192 103.777 50.034 103.756 50.0394C103.693 50.9975 104.501 52.4917 105.71 53.0198C105.172 53.7188 101.264 54.1728 99.8289 53.7682C100.033 52.7087 100.059 51.4181 99.618 50.2143C99.4064 49.6368 99.1922 49.2669 98.8992 48.7682C98.6683 48.3749 98.388 47.9016 98.0222 47.1832C97.9241 46.9902 97.8327 46.8 97.7479 46.611C97.7246 46.5589 97.7012 46.5069 97.6792 46.4555C96.2423 43.1386 96.9024 40.516 99.7788 39.2435C101.61 38.433 103.736 38.9477 104.665 40.3865C105.004 40.912 105.278 41.4274 105.503 41.9148C105.869 42.7099 106.104 43.4283 106.268 43.9885Z" fill="#A3BFFE"/>
<path d="M102.771 44.6712C102.812 44.8262 102.854 44.9819 102.895 45.137C102.946 45.3294 102.831 45.56 102.629 45.6054C102.429 45.6508 102.216 45.5453 102.161 45.3394C102.12 45.1844 102.078 45.0287 102.037 44.8737C101.985 44.6812 102.101 44.4507 102.303 44.4052C102.502 44.3591 102.715 44.4647 102.771 44.6712Z" fill="#233152"/>
<path d="M105.751 43.8386C105.783 43.9883 105.816 44.1373 105.848 44.287C105.89 44.4815 105.79 44.708 105.582 44.7555C105.39 44.7989 105.159 44.698 105.114 44.4895C105.082 44.3398 105.049 44.1908 105.017 44.0411C104.975 43.8466 105.074 43.6201 105.283 43.5727C105.475 43.5285 105.706 43.6301 105.751 43.8386Z" fill="#233152"/>
<path d="M104.404 48.7313C104.667 48.7313 104.929 48.6545 105.148 48.5049C105.206 48.4655 105.22 48.3861 105.181 48.3287C105.142 48.2713 105.063 48.2559 105.005 48.296C104.697 48.5069 104.266 48.5356 103.932 48.3687C103.655 48.2292 103.446 47.9541 103.375 47.651C104.021 47.8253 104.727 47.7318 105.303 47.3886C105.363 47.3526 105.383 47.2751 105.347 47.2144C105.311 47.1543 105.234 47.1342 105.173 47.1703C104.602 47.5095 103.89 47.5776 103.266 47.3506C103.226 47.3359 103.182 47.3426 103.148 47.3673C103.114 47.392 103.094 47.4327 103.096 47.4747C103.114 47.9448 103.398 48.3841 103.818 48.5951C104.001 48.6859 104.203 48.7313 104.404 48.7313Z" fill="#233152"/>
<path d="M99.9052 43.0999L96.8011 42.3398L95.634 43.1613C95.8029 44.8401 97.8503 47.7434 98.549 48.6522C98.6706 48.8104 98.892 48.8818 99.0999 48.8291L99.3408 48.8911L99.2575 46.7165L100.313 46.0519L100.064 44.9822C100.079 44.9816 100.093 44.9789 100.106 44.9736C100.48 44.8254 100.115 43.7945 99.9052 43.0999Z" fill="#233152"/>
<path d="M101.224 41.2977C102.377 40.7738 105.349 40.5906 106.086 42.6104C106.41 43.4981 106.511 40.3683 106.511 40.3683L104.116 39.4769L101.883 39.0254L99.9595 39.7166L101.224 41.2977Z" fill="#233152"/>
<path d="M97.3826 46.9764C96.7575 45.8109 96.1844 44.3397 95.8276 43.0488C95.4707 41.7579 95.5756 40.2085 96.4677 39.2684C96.8792 38.8339 97.5382 38.5676 98.0312 38.8881C98.0937 38.9289 98.1549 38.9789 98.2272 38.9867C98.2858 38.993 98.3431 38.9712 98.3978 38.9472C99.1721 38.6127 99.7868 37.9648 100.457 37.4268C101.126 36.8894 101.943 36.438 102.764 36.5979C103.186 36.6803 103.585 36.9211 104.013 36.9063C104.882 36.8767 105.685 35.3499 106.379 35.914C106.659 36.1408 106.745 36.5479 106.795 36.9225C106.919 37.8507 106.923 38.8529 106.485 39.662C106.306 39.9938 106.06 40.2776 105.79 40.5269C104.886 41.3607 103.654 41.8156 102.484 41.5959C101.963 41.498 101.48 41.6008 100.969 41.7459C100.457 41.891 99.9535 42.3016 99.904 42.8713C99.8702 43.2622 100.055 43.6488 100.007 44.0376C99.9613 44.4066 99.7171 44.7038 99.5003 44.9932C99.2164 45.3714 98.9611 45.7749 98.739 46.1989C98.6694 46.3313 98.5997 46.47 98.4851 46.5595C98.3679 46.6503 98.2181 46.6771 98.0735 46.6883C97.8762 46.7053 97.4809 47.1595 97.3826 46.9764Z" fill="#233152"/>
<path d="M101.191 47.5252C101.187 47.5351 101.183 47.545 101.178 47.5549C101.169 47.5743 101.159 47.5931 101.148 47.6115C101.132 47.6389 101.114 47.6658 101.094 47.6908C101.087 47.6988 101.081 47.7063 101.074 47.7139C101.074 47.7143 101.073 47.7148 101.073 47.7153C101.066 47.7233 101.059 47.7313 101.051 47.7389C101.044 47.7459 101.038 47.7525 101.03 47.7596C101.029 47.761 101.028 47.7624 101.026 47.7634C101.019 47.7705 101.011 47.7766 101.003 47.7832C100.996 47.7893 100.989 47.7955 100.981 47.8011C100.979 47.803 100.977 47.8049 100.975 47.8063C100.967 47.8124 100.959 47.8181 100.95 47.8238C100.943 47.8289 100.935 47.8341 100.927 47.8393C100.916 47.8464 100.904 47.853 100.893 47.8596C100.487 48.0855 99.8984 47.8912 99.5791 47.4262C99.3286 47.0607 99.3181 46.6367 99.522 46.3627C99.5776 46.2877 99.6494 46.2235 99.7364 46.1754C99.7909 46.1452 99.8491 46.1221 99.9094 46.1066C99.9215 46.1033 99.9335 46.1004 99.9461 46.0981C99.9571 46.0957 99.9676 46.0938 99.9781 46.0924C99.9807 46.0915 99.9838 46.091 99.9865 46.091C99.988 46.0905 99.9901 46.0905 99.9922 46.0905C100.001 46.0891 100.01 46.0877 100.019 46.0867C100.02 46.0867 100.021 46.0867 100.022 46.0867C100.034 46.0853 100.046 46.0844 100.057 46.0839C100.06 46.0834 100.063 46.0834 100.066 46.0834C100.075 46.083 100.083 46.0825 100.092 46.0825C100.1 46.0825 100.108 46.082 100.115 46.082C100.123 46.082 100.131 46.082 100.139 46.0825C100.151 46.0825 100.163 46.083 100.174 46.0839C100.187 46.0844 100.2 46.0858 100.213 46.0872C100.241 46.09 100.27 46.0943 100.298 46.1C100.308 46.1018 100.319 46.1042 100.329 46.1066H100.33C100.341 46.1089 100.352 46.1117 100.363 46.1146C100.406 46.1259 100.449 46.14 100.491 46.157C100.502 46.1613 100.512 46.1655 100.523 46.1702C100.525 46.1716 100.528 46.1726 100.531 46.174C100.73 46.2622 100.915 46.4117 101.052 46.6098C101.26 46.9135 101.302 47.2592 101.191 47.5252Z" fill="#A3BFFE"/>
<path d="M99.8967 48.1217C100.094 48.1217 100.28 48.0703 100.445 47.9688C100.461 47.9588 100.478 47.9475 100.494 47.9361C100.504 47.9295 100.517 47.9201 100.529 47.9101C100.539 47.9028 100.551 47.8934 100.563 47.8834C100.564 47.8821 100.572 47.8754 100.573 47.874C100.584 47.8654 100.596 47.8547 100.607 47.8433C100.615 47.8373 100.626 47.826 100.637 47.814C100.639 47.812 100.641 47.8099 100.643 47.8086C100.654 47.7973 100.665 47.7852 100.676 47.7726C100.684 47.7625 100.696 47.7492 100.706 47.7358C100.707 47.7352 100.707 47.7345 100.708 47.7338C100.718 47.7211 100.727 47.7085 100.736 47.6958C100.765 47.6551 100.792 47.6123 100.814 47.5703C100.83 47.5416 100.844 47.5108 100.857 47.4795C100.864 47.4648 100.87 47.4481 100.876 47.4314L100.884 47.4114C100.906 47.3453 100.871 47.2732 100.804 47.2505C100.738 47.2284 100.666 47.2638 100.643 47.3299L100.64 47.3379C100.633 47.3579 100.628 47.3686 100.623 47.38C100.613 47.4054 100.602 47.4281 100.59 47.4508C100.572 47.4841 100.552 47.5168 100.529 47.5496C100.521 47.5602 100.514 47.5689 100.507 47.5783C100.507 47.5789 100.506 47.5803 100.505 47.5809C100.499 47.5896 100.491 47.5983 100.484 47.6063C100.475 47.617 100.468 47.6243 100.461 47.6317C100.447 47.647 100.441 47.653 100.434 47.6591C100.422 47.6711 100.415 47.6764 100.409 47.6824C100.393 47.6964 100.384 47.7031 100.375 47.7098C100.366 47.7171 100.359 47.7225 100.352 47.7272C100.336 47.7378 100.324 47.7465 100.311 47.7539C100.095 47.8874 99.8219 47.9048 99.5436 47.8026C99.254 47.6964 98.995 47.4755 98.8128 47.181C98.5285 46.7203 98.4985 46.1702 98.7381 45.8123C98.8008 45.7182 98.8796 45.6421 98.9723 45.5847C99.0311 45.5486 99.0951 45.5199 99.1612 45.5012C99.1739 45.4972 99.1866 45.4939 99.1999 45.4912C99.2126 45.4885 99.2233 45.4859 99.234 45.4845C99.2366 45.4839 99.24 45.4832 99.2426 45.4825C99.244 45.4825 99.2446 45.4819 99.246 45.4819C99.2493 45.4812 99.2533 45.4812 99.2567 45.4805C99.2647 45.4792 99.2727 45.4778 99.2807 45.4765C99.282 45.4765 99.2834 45.4758 99.2847 45.4758C99.2967 45.4745 99.3094 45.4732 99.3214 45.4725C99.3241 45.4725 99.3314 45.4718 99.3341 45.4718L99.3881 45.4698H99.4095C99.4275 45.4705 99.4395 45.4705 99.4515 45.4718C99.4682 45.4732 99.4829 45.4745 99.4983 45.4765C99.5303 45.4799 99.561 45.4852 99.593 45.4925L99.6264 45.5005C99.6277 45.5012 99.6291 45.5012 99.6304 45.5019C99.6424 45.5052 99.6544 45.5079 99.6664 45.5119C99.7165 45.5259 99.7652 45.5446 99.8153 45.5666C99.8273 45.572 99.8386 45.5773 99.85 45.5827C99.8506 45.5827 99.8613 45.588 99.862 45.5887L99.8827 45.5994C99.9447 45.6321 100.021 45.6087 100.054 45.5466C100.087 45.4845 100.064 45.4077 100.001 45.375L99.9594 45.3543C99.9474 45.3483 99.9327 45.341 99.9174 45.3343C99.8573 45.3076 99.7966 45.2856 99.7385 45.2689C99.7258 45.2649 99.7118 45.2615 99.6978 45.2575C99.6958 45.2569 99.6931 45.2562 99.6911 45.2555C99.6764 45.2522 99.6624 45.2488 99.6477 45.2455C99.6084 45.2368 99.5677 45.2295 99.527 45.2255C99.5089 45.2235 99.4909 45.2221 99.4729 45.2201C99.4569 45.2188 99.4389 45.2181 99.4215 45.2175C99.4162 45.2168 99.4042 45.2168 99.3928 45.2168L99.3174 45.2188C99.3161 45.2188 99.304 45.2195 99.3034 45.2195C99.286 45.2208 99.27 45.2221 99.254 45.2241C99.2526 45.2241 99.252 45.2241 99.2507 45.2248C99.236 45.2268 99.2239 45.2281 99.2126 45.2308C99.2119 45.2308 99.2119 45.2308 99.2119 45.2308C99.2046 45.2315 99.1973 45.2328 99.1899 45.2348C99.1752 45.2375 99.1605 45.2402 99.1459 45.2442C99.1298 45.2475 99.1118 45.2522 99.0931 45.2575C99.0044 45.2829 98.9196 45.3203 98.8409 45.369C98.7167 45.4451 98.612 45.5473 98.5285 45.6721C98.2349 46.1114 98.2629 46.7718 98.5986 47.3152C98.8102 47.6577 99.1152 47.9161 99.4575 48.0416C99.6057 48.095 99.7539 48.1217 99.8967 48.1217Z" fill="#233152"/>
<path d="M99.1384 46.9663C99.1631 46.9663 99.1878 46.959 99.2098 46.9443C99.268 46.9048 99.2827 46.826 99.2432 46.7678C99.1524 46.6349 99.107 46.4838 99.115 46.3435C99.1223 46.2159 99.1744 46.113 99.2606 46.0541C99.3428 45.998 99.5278 45.9826 99.6427 46.0461C99.7042 46.0802 99.7816 46.0582 99.815 45.9967C99.8491 45.9352 99.8271 45.8577 99.7656 45.8243C99.5746 45.718 99.2893 45.7267 99.117 45.8443C98.9634 45.9486 98.8725 46.121 98.8605 46.3295C98.8491 46.5253 98.9099 46.7318 99.0322 46.9115C99.0575 46.9469 99.0976 46.9663 99.1384 46.9663Z" fill="#233152"/>
<path d="M127.643 67.6725C127.769 67.5024 127.961 67.234 128.174 66.8882C128.817 65.8456 129.01 65.4746 129.464 65.0059C129.645 64.8194 130.005 64.7029 130.271 64.9126C130.484 65.0796 130.48 65.5401 130.428 65.7335C130.248 66.4119 129.992 66.8825 129.748 67.137C130.255 67.0356 130.655 66.9071 130.93 66.8075C131.553 66.5808 131.865 66.4674 132.133 66.3055C132.472 66.1001 133.099 65.7549 133.421 66.1908C133.667 66.5247 133.461 66.8334 133.237 67.0293C133.35 66.943 134.201 66.388 134.642 66.8932C134.805 67.0797 134.887 67.2775 134.792 67.5421C134.711 67.7676 134.474 67.949 134.414 67.9868C134.447 67.9755 134.683 67.9585 134.863 68.075C135.084 68.2186 135.092 68.5072 135.093 68.5406C135.096 68.8215 134.888 69.037 134.711 69.1938C134.046 69.7841 133.252 70.0632 132.803 70.2131C132.281 70.387 131.806 70.5684 131.127 70.7095C130.606 70.8178 128.87 71.325 128.51 71.352C128.351 71.3237 128.564 70.6578 127.964 69.5775C127.499 68.7396 127.606 67.9049 127.643 67.6725Z" fill="#A3BFFE"/>
<path d="M104.208 59.0197L106.033 62.9282L112.631 60.0155C112.106 59.14 111.612 58.3582 111.168 57.685C110.863 57.2237 110.534 56.7877 110.186 56.377L104.208 59.0197Z" fill="white"/>
<path d="M98.7688 58.738C98.7869 58.7903 98.8097 58.85 98.8298 58.901C99.3365 60.1444 99.8412 61.4629 100.426 62.8136C101.011 64.1643 101.675 65.5533 102.522 66.9114C103.365 68.2681 104.405 69.5947 105.667 70.732C106.923 71.8747 108.395 72.7967 109.924 73.4449L110.211 73.567L110.307 73.6066L110.425 73.6515C110.504 73.6824 110.582 73.7099 110.651 73.7307L110.868 73.7998L111.069 73.8535C111.208 73.8917 111.328 73.9132 111.456 73.9427C111.952 74.0407 112.393 74.0883 112.816 74.1185C113.659 74.1769 114.431 74.1682 115.186 74.138C116.692 74.0729 118.127 73.9159 119.547 73.7287C120.966 73.5388 122.365 73.3113 123.755 73.0631C124.34 72.957 124.923 72.8477 125.506 72.7343C125.615 72.7128 125.726 72.6907 125.836 72.6692L126.874 72.4585L127.255 72.3766L127.925 72.2337C129.206 71.9593 128.285 67.3569 127.041 67.5636L126.984 67.5736L126.489 67.6568L126 67.74L124.997 67.8984C124.907 67.9125 124.817 67.9252 124.727 67.938C124.147 68.0259 123.566 68.1104 122.987 68.1883C121.648 68.3681 120.308 68.5251 118.979 68.6439C117.654 68.7613 116.33 68.8438 115.072 68.8418C114.447 68.8405 113.834 68.815 113.299 68.7526C113.035 68.7204 112.788 68.6788 112.608 68.6311C112.57 68.6184 112.519 68.6083 112.493 68.5969L112.444 68.5815C112.436 68.5761 112.425 68.5728 112.415 68.5674C112.402 68.5634 112.399 68.5613 112.398 68.5587L112.394 68.556H112.391L112.371 68.5446L112.186 68.4526C111.196 67.9642 110.326 67.3442 109.576 66.5806C108.823 65.8203 108.179 64.9165 107.618 63.8919C107.055 62.8679 106.574 61.7286 106.124 60.5134C105.675 59.2982 105.257 58.0086 104.792 56.6606L104.79 56.6565C104.216 54.9911 102.402 54.1081 100.739 54.6838C99.0771 55.2575 98.1943 57.0732 98.7688 58.738Z" fill="#0FC39B"/>
<path d="M124.22 67.9568L124.995 72.7299C125.104 72.7085 125.215 72.6865 125.323 72.6651L126.357 72.4555L126.736 72.374L125.974 67.6777L125.487 67.7605L124.489 67.9181C124.399 67.9314 124.31 67.9448 124.22 67.9568Z" fill="white"/>
<path d="M181.273 55.9058C181.273 54.3646 182.523 53.1152 184.064 53.1152H260.106C261.647 53.1152 262.897 54.3646 262.897 55.9058V97.7639C262.897 99.3051 261.647 100.554 260.106 100.554H184.064C182.523 100.554 181.273 99.3051 181.273 97.7639V55.9058Z" fill="#E1EAF1"/>
<path d="M181.273 55.9058C181.273 54.3646 182.523 53.1152 184.064 53.1152H260.106C261.647 53.1152 262.897 54.3646 262.897 55.9058V97.7639C262.897 99.3051 261.647 100.554 260.106 100.554H184.064C182.523 100.554 181.273 99.3051 181.273 97.7639V55.9058Z" fill="url(#paint2_linear)"/>
<path d="M286.071 60.4805H268.167C266.626 60.4805 265.377 61.7298 265.377 63.271V97.8952C265.377 99.4363 266.626 100.686 268.167 100.686H308.243C309.784 100.686 311.034 99.4363 311.034 97.8952V82.7311C311.034 81.4649 310.181 80.3574 308.957 80.0334L300.436 77.7778C299.799 77.6091 299.242 77.2204 298.864 76.6804L288.357 61.6707C287.835 60.9248 286.982 60.4805 286.071 60.4805Z" fill="#E1EAF1"/>
<path d="M286.071 60.4805H268.167C266.626 60.4805 265.377 61.7298 265.377 63.271V97.8952C265.377 99.4363 266.626 100.686 268.167 100.686H308.243C309.784 100.686 311.034 99.4363 311.034 97.8952V82.7311C311.034 81.4649 310.181 80.3574 308.957 80.0334L300.436 77.7778C299.799 77.6091 299.242 77.2204 298.864 76.6804L288.357 61.6707C287.835 60.9248 286.982 60.4805 286.071 60.4805Z" fill="url(#paint3_linear)"/>
<circle cx="293.294" cy="100.643" r="7.67399" fill="#233152"/>
<circle cx="293.293" cy="100.642" r="2.3022" fill="white"/>
<circle cx="200.109" cy="100.643" r="7.67399" fill="#233152"/>
<circle cx="200.11" cy="100.642" r="2.3022" fill="white"/>
<path opacity="0.34" d="M283.612 64.9746H292.711C293.348 64.9746 293.946 65.2854 294.311 65.8074L300.57 74.7415H287.151C286.695 74.7415 286.28 74.4797 286.083 74.0684L282.544 66.6696C282.168 65.8837 282.741 64.9746 283.612 64.9746Z" fill="#6994F4"/>
<path d="M175.693 60.0938H248.247C253.256 60.0938 257.317 64.1542 257.317 69.163V86.6039H175.693V60.0938Z" fill="url(#paint4_linear)"/>
<path d="M248.403 70.6307C247.884 69.3682 247.005 68.2901 245.88 67.5333C244.754 66.7766 243.431 66.3752 242.08 66.3801L230.868 66.3691C230.852 66.3692 230.836 66.3758 230.825 66.3874C230.813 66.399 230.807 66.4147 230.807 66.4312V66.4312C230.807 66.8666 230.978 67.2842 231.282 67.5921C231.586 67.9 231.999 68.0731 232.429 68.0732H242.05C243.061 68.0703 244.051 68.3674 244.898 68.9278C244.909 68.9351 244.917 68.9457 244.922 68.9583C244.926 68.9708 244.927 68.9845 244.923 68.9973C244.919 69.0101 244.911 69.0213 244.901 69.0293C244.89 69.0372 244.877 69.0414 244.864 69.0413H232.662C232.642 69.0413 232.623 69.0492 232.609 69.0634C232.595 69.0776 232.587 69.0968 232.587 69.1169C232.587 69.3306 232.628 69.5423 232.709 69.7398C232.789 69.9373 232.908 70.1168 233.057 70.268C233.206 70.4192 233.383 70.5391 233.579 70.6209C233.774 70.7028 233.983 70.7449 234.194 70.7449H246.501C246.526 70.745 246.551 70.752 246.573 70.7654C246.595 70.7787 246.613 70.7977 246.625 70.8205C246.766 71.0808 246.885 71.3528 246.98 71.6336C246.983 71.6444 246.984 71.656 246.983 71.6673C246.981 71.6785 246.977 71.6893 246.97 71.6985C246.963 71.7078 246.955 71.7153 246.945 71.7205C246.935 71.7258 246.924 71.7285 246.912 71.7285H235.263C235.238 71.7285 235.214 71.7385 235.197 71.7562C235.179 71.774 235.169 71.7982 235.168 71.8234C235.165 72.1498 235.154 73.2158 235.154 73.3489C235.154 74.3823 235.382 75.4027 235.82 76.3363C236.258 77.2698 236.895 78.0934 237.686 78.7473C238.477 79.4012 239.401 79.8692 240.393 80.1175C241.384 80.3658 242.418 80.3881 243.419 80.1829C244.42 79.9777 245.363 79.5501 246.181 78.9309C246.999 78.3118 247.67 77.5166 248.147 76.6027C248.624 75.6889 248.895 74.6793 248.939 73.6469C248.983 72.6145 248.8 71.5851 248.403 70.633V70.6307ZM247.252 73.6216C247.218 74.3241 247.044 75.0125 246.741 75.6456C246.491 76.1712 246.072 76.5948 245.552 76.8467C245.032 77.0985 244.442 77.1634 243.881 77.0308C243.132 76.8487 242.43 76.5092 241.82 76.0343C241.807 76.0226 241.791 76.0161 241.774 76.0161C241.756 76.0161 241.74 76.0226 241.727 76.0343L241.059 76.7006C241.053 76.7069 241.048 76.7143 241.045 76.7224C241.041 76.7305 241.04 76.7393 241.04 76.7481C241.04 76.7569 241.041 76.7656 241.045 76.7738C241.048 76.7819 241.053 76.7893 241.059 76.7956C241.827 77.5719 242.914 78.1051 243.362 78.3052C243.377 78.3115 243.391 78.3228 243.399 78.3372C243.408 78.3517 243.412 78.3687 243.411 78.3856C243.409 78.4025 243.403 78.4185 243.391 78.4313C243.38 78.444 243.366 78.4529 243.349 78.4565C242.425 78.6912 241.455 78.674 240.539 78.4065C240.205 78.3115 239.883 78.1767 239.58 78.0049C237.917 77.0595 236.934 75.4232 236.844 73.6182C236.843 73.5939 236.847 73.5697 236.855 73.547C236.864 73.5242 236.877 73.5034 236.893 73.4859C236.91 73.4684 236.93 73.4545 236.952 73.445C236.974 73.4356 236.998 73.4308 237.022 73.431H247.072C247.097 73.431 247.121 73.4361 247.143 73.4457C247.165 73.4554 247.186 73.4696 247.202 73.4874C247.219 73.5052 247.232 73.5263 247.241 73.5494C247.25 73.5724 247.253 73.597 247.252 73.6216Z" fill="white"/>
<defs>
<linearGradient id="paint0_linear" x1="384.859" y1="-120.506" x2="365.894" y2="111.495" gradientUnits="userSpaceOnUse">
<stop stop-color="#6994F4"/>
<stop offset="1" stop-color="white" stop-opacity="0"/>
</linearGradient>
<linearGradient id="paint1_linear" x1="103.419" y1="45.8078" x2="132.412" y2="69.4454" gradientUnits="userSpaceOnUse">
<stop stop-color="#C5D6E2"/>
<stop offset="1" stop-color="#E6EEF4"/>
</linearGradient>
<linearGradient id="paint2_linear" x1="280.686" y1="117.995" x2="245.003" y2="65.0983" gradientUnits="userSpaceOnUse">
<stop stop-color="#C5D6E2"/>
<stop offset="1" stop-color="#E6EEF4"/>
</linearGradient>
<linearGradient id="paint3_linear" x1="303.36" y1="111.367" x2="270.222" y2="80.322" gradientUnits="userSpaceOnUse">
<stop stop-color="#C5D6E2"/>
<stop offset="1" stop-color="#E6EEF4"/>
</linearGradient>
<linearGradient id="paint4_linear" x1="216.505" y1="60.0937" x2="175.693" y2="78.2323" gradientUnits="userSpaceOnUse">
<stop offset="0.037272" stop-color="#16D3A9"/>
<stop offset="1" stop-color="#16D3A9" stop-opacity="0"/>
</linearGradient>
</defs>
</svg>
